<?xml version="1.0" standalone="no"?>
<!DOCTYPE svg PUBLIC "-//W3C//DTD SVG 20010904//EN"
 "http://www.w3.org/TR/2001/REC-SVG-20010904/DTD/svg10.dtd">
<svg version="1.0" xmlns="http://www.w3.org/2000/svg"
 width="245.000000pt" height="249.000000pt" viewBox="0 0 245.000000 249.000000"
 preserveAspectRatio="xMidYMid meet">

<g transform="translate(0.000000,249.000000) scale(0.100000,-0.100000)"
fill="#000000" stroke="none">
<path d="M1120 2215 c-36 -8 -99 -31 -140 -51 -68 -34 -99 -61 -346 -306 -290
-289 -326 -334 -366 -463 -31 -97 -31 -243 0 -340 40 -129 76 -174 366 -463
247 -245 278 -272 346 -306 196 -95 409 -83 582 34 94 63 529 500 586 588 67
104 87 177 87 317 0 226 -36 288 -364 618 -256 258 -336 322 -449 357 -88 28
-218 34 -302 15z m175 -356 c62 -16 126 -75 158 -146 78 -174 49 -517 -64
-751 -44 -92 -71 -114 -114 -94 -42 19 -41 51 5 143 56 111 90 245 97 389 11
231 -40 350 -152 350 -112 0 -163 -119 -152 -350 19 -361 140 -649 285 -676
76 -15 172 45 256 160 42 57 53 66 80 66 100 0 66 -103 -77 -236 -230 -213
-476 -103 -592 266 -56 180 -86 455 -65 595 33 221 160 328 335 284z m-245
-1161 c13 -25 13 -31 0 -55 -30 -55 -120 -35 -120 25 0 64 88 86 120 30z"/>
</g>
</svg>
